<svg xmlns="http://www.w3.org/2000/svg" xmlns:xlink="http://www.w3.org/1999/xlink" width="150" height="150" viewBox="0 0 150 150"><defs><style>.a,.d,.e{fill:none;}.b{clip-path:url(#a);}.c{fill:#191919;}.d{stroke:#fff;}.d,.e{stroke-width:1.5px;}.e{stroke:#eeb111;}.f{clip-path:url(#b);}.g{stroke:none;}</style><clipPath id="a"><rect class="a" width="150" height="150"/></clipPath><clipPath id="b"><rect class="a" width="46.636" height="49.227"/></clipPath></defs><g class="b" transform="translate(0)"><circle class="c" cx="75" cy="75" r="75"/><g transform="translate(-237 -234.955)"><g class="d" transform="translate(265 278)"><rect class="g" width="95" height="63.909" rx="5"/><rect class="a" x="0.75" y="0.75" width="93.5" height="62.409" rx="4.25"/></g><g class="d" transform="translate(328.909 286.636)"><path class="g" d="M2,0H21.318a2,2,0,0,1,2,2V34.545a0,0,0,0,1,0,0H0a0,0,0,0,1,0,0V2A2,2,0,0,1,2,0Z"/><path class="a" d="M2,.75H21.318A1.25,1.25,0,0,1,22.568,2V33.045a.75.75,0,0,1-.75.75H1.5a.75.75,0,0,1-.75-.75V2A1.25,1.25,0,0,1,2,.75Z"/></g><g class="e" transform="translate(330.636 324.636)"><rect class="g" width="4.318" height="4.318" rx="1"/><rect class="a" x="0.75" y="0.75" width="2.818" height="2.818" rx="0.25"/></g><g class="e" transform="translate(330.636 330.682)"><rect class="g" width="4.318" height="4.318" rx="1"/><rect class="a" x="0.75" y="0.75" width="2.818" height="2.818" rx="0.25"/></g><g class="e" transform="translate(338.409 324.636)"><rect class="g" width="4.318" height="4.318" rx="1"/><rect class="a" x="0.75" y="0.75" width="2.818" height="2.818" rx="0.25"/></g><g class="e" transform="translate(338.409 330.682)"><rect class="g" width="4.318" height="4.318" rx="1"/><rect class="a" x="0.75" y="0.75" width="2.818" height="2.818" rx="0.25"/></g><g class="e" transform="translate(346.182 324.636)"><rect class="g" width="4.318" height="4.318" rx="1"/><rect class="a" x="0.75" y="0.75" width="2.818" height="2.818" rx="0.25"/></g><g class="e" transform="translate(346.182 330.682)"><rect class="g" width="4.318" height="4.318" rx="1"/><rect class="a" x="0.75" y="0.75" width="2.818" height="2.818" rx="0.25"/></g><g class="f" transform="translate(273.205 287.5)"><g transform="translate(-272.5 -274)"><line class="d" x2="54" transform="translate(272.5 274.5)"/></g><g transform="translate(-272.5 -265)"><line class="d" x2="54" transform="translate(272.5 274.5)"/></g><g transform="translate(-272.5 -256)"><line class="d" x2="54" transform="translate(272.5 274.5)"/></g><g transform="translate(-272.5 -247)"><line class="d" x2="54" transform="translate(272.5 274.5)"/></g><g transform="translate(-272.5 -238)"><line class="d" x2="54" transform="translate(272.5 274.5)"/></g><g transform="translate(-272.5 -229)"><line class="d" x2="54" transform="translate(272.5 274.5)"/></g></g></g></g></svg>