<svg xmlns="http://www.w3.org/2000/svg" xmlns:xlink="http://www.w3.org/1999/xlink" width="150" height="150" viewBox="0 0 150 150"><defs><style>.a,.d{fill:none;}.b{clip-path:url(#a);}.c{fill:#191919;}.d{stroke:#fff;stroke-width:1.5px;}.e{fill:#eeb111;}.f{stroke:none;}</style><clipPath id="a"><rect class="a" width="150" height="150"/></clipPath></defs><g class="b"><circle class="c" cx="75" cy="75" r="75"/><g transform="translate(-433 -240)"><g class="d" transform="translate(483 263)"><rect class="f" width="50" height="101" rx="5"/><rect class="a" x="0.75" y="0.75" width="48.5" height="99.5" rx="4.25"/></g><g class="d" transform="translate(492.103 363)"><path class="f" d="M0,0H6A0,0,0,0,1,6,0V4A1,1,0,0,1,5,5H1A1,1,0,0,1,0,4V0A0,0,0,0,1,0,0Z"/><path class="a" d="M1.5.75h3a.75.75,0,0,1,.75.75V4A.25.25,0,0,1,5,4.25H1A.25.25,0,0,1,.75,4V1.5A.75.75,0,0,1,1.5.75Z"/></g><g class="d" transform="translate(517.897 363)"><path class="f" d="M0,0H6A0,0,0,0,1,6,0V4A1,1,0,0,1,5,5H1A1,1,0,0,1,0,4V0A0,0,0,0,1,0,0Z"/><path class="a" d="M1.5.75h3a.75.75,0,0,1,.75.75V4A.25.25,0,0,1,5,4.25H1A.25.25,0,0,1,.75,4V1.5A.75.75,0,0,1,1.5.75Z"/></g><rect class="e" width="3" height="11" rx="1.5" transform="translate(490.705 280)"/><rect class="e" width="3" height="16" rx="1.5" transform="translate(490.705 304.264)"/><line class="d" x2="49" transform="translate(483.5 296.75)"/></g></g></svg>