<svg xmlns="http://www.w3.org/2000/svg" xmlns:xlink="http://www.w3.org/1999/xlink" width="150" height="150" viewBox="0 0 150 150"><defs><style>.a,.d,.e{fill:none;}.b{clip-path:url(#a);}.c{fill:#191919;}.d{stroke:#fff;}.d,.e{stroke-width:1.5px;}.e{stroke:#eeb111;}.f{stroke:none;}</style><clipPath id="a"><rect class="a" width="150" height="150"/></clipPath></defs><g class="b"><circle class="c" cx="75" cy="75" r="75"/><g transform="translate(-44 -194)"><g class="d" transform="translate(85 224)"><rect class="f" width="67.909" height="85.909" rx="5"/><rect class="a" x="0.75" y="0.75" width="66.409" height="84.409" rx="4.25"/></g><g class="e" transform="translate(115.273 229.727)"><circle class="f" cx="3.273" cy="3.273" r="3.273"/><circle class="a" cx="3.273" cy="3.273" r="2.523"/></g><g class="e" transform="translate(95.636 249.364)"><circle class="f" cx="23.727" cy="23.727" r="23.727"/><circle class="a" cx="23.727" cy="23.727" r="22.977"/></g><line class="d" x2="66.273" transform="translate(85.409 239.955)"/><g class="d" transform="translate(94 309.091)"><path class="f" d="M0,0H4.909a0,0,0,0,1,0,0V3.909a1,1,0,0,1-1,1H1a1,1,0,0,1-1-1V0A0,0,0,0,1,0,0Z"/><path class="a" d="M1.5.75H3.409a.75.75,0,0,1,.75.75V3.909a.25.25,0,0,1-.25.25H1a.25.25,0,0,1-.25-.25V1.5A.75.75,0,0,1,1.5.75Z"/></g><g class="d" transform="translate(139.818 309.091)"><path class="f" d="M0,0H4.909a0,0,0,0,1,0,0V3.909a1,1,0,0,1-1,1H1a1,1,0,0,1-1-1V0A0,0,0,0,1,0,0Z"/><path class="a" d="M1.5.75H3.409a.75.75,0,0,1,.75.75V3.909a.25.25,0,0,1-.25.25H1a.25.25,0,0,1-.25-.25V1.5A.75.75,0,0,1,1.5.75Z"/></g></g></g></svg>