<svg xmlns="http://www.w3.org/2000/svg" xmlns:xlink="http://www.w3.org/1999/xlink" width="200" height="66.81" viewBox="0 0 200 66.81"><defs><style>.a{fill:none;}.b{clip-path:url(#a);}.c{fill:#231f20;}.d{fill:#eeb111;}</style><clipPath id="a"><rect class="a" width="200" height="66.81"/></clipPath></defs><g class="b"><path class="c" d="M230.742,36.406,220.429,74.1h-5.99l-7.291-27.379-7.4,27.379h-5.994l-10.312-37.69h5.939l7.343,27.379,7.4-27.379h5.885l7.452,27.379,7.344-27.379Z" transform="translate(-183.445 -29.171)"/><path class="c" d="M256.013,36.348l5.939-.483V45.1l-.108,3.455h.219a20.611,20.611,0,0,1,7.668-1.512c4.805,0,8.045,2.16,8.045,10.421v16.47h-5.939V57.949c0-4.966-2.43-5.615-5.184-5.615a16.468,16.468,0,0,0-4.7.81V73.933h-5.939Z" transform="translate(-206.106 -29.004)"/><path class="c" d="M297.807,37.109c3.079,0,3.563,1.783,3.563,3.781s-.648,3.834-3.563,3.834-3.51-1.837-3.51-3.834.539-3.781,3.51-3.781M294.836,47.8h5.939V74.315h-5.939Z" transform="translate(-218.045 -29.39)"/><path class="c" d="M310.972,52.442h4.05l.811,2.16h.378a11.094,11.094,0,0,1,7.289-2.539,10.085,10.085,0,0,1,1.241.054v5.832a22.7,22.7,0,0,0-3.347-.323,10.315,10.315,0,0,0-4.483,1.08v20.25h-5.94Z" transform="translate(-223.258 -34.03)"/><path class="c" d="M334.616,73.928V36.348l5.939-.483V73.934Z" transform="translate(-230.628 -29.004)"/><path class="c" d="M399.08,52.065c8.425,0,11.665,4.966,11.665,13.769,0,8.262-3.024,13.663-11.773,13.663s-11.826-5.4-11.826-13.663c0-8.8,3.51-13.769,11.931-13.769M404.7,65.834c0-5.021-.81-9.124-5.563-9.124-4.805,0-5.994,3.941-5.994,9.124,0,4.806.971,8.965,5.724,8.965s5.832-3.942,5.832-8.965" transform="translate(-247.06 -34.031)"/><path class="c" d="M437.7,52.065c8.424,0,11.666,4.966,11.666,13.769,0,8.262-3.024,13.663-11.773,13.663s-11.826-5.4-11.826-13.663c0-8.8,3.51-13.769,11.931-13.769m5.617,13.769c0-5.021-.812-9.124-5.563-9.124-4.805,0-5.994,3.941-5.994,9.124,0,4.806.971,8.965,5.724,8.965s5.832-3.942,5.832-8.965" transform="translate(-259.149 -34.031)"/><path class="c" d="M465.559,73.928V36.348l5.939-.483V73.934Z" transform="translate(-271.498 -29.004)"/><path class="c" d="M350.273,52.442h4.483l.483,1.943a18.635,18.635,0,0,1,8.046-2.321c5.4,0,9.341,3.942,9.341,13.39,0,9.289-4.158,13.879-11.068,13.879a33.023,33.023,0,0,1-5.346-.54V90.941l-5.941.65Zm5.941,21.6c1.672.053,2.591.107,4.319.107,3.67,0,6.1-1.944,6.1-9.666,0-5.292-2.161-6.694-6.048-6.694a13.518,13.518,0,0,0-4.374.759Z" transform="translate(-235.542 -34.031)"/><path class="d" d="M359.642,28.037c-4.442-5.146-18.536-.621-34.265,10.263v2.743c13.852-9.847,26.063-14.39,29.561-10.337,4.365,5.059-6.5,21.608-24.266,36.942s-35.721,23.65-40.086,18.59c-2.269-2.628-.419-8.354,4.365-15.4H292.17c-5.924,8.834-8.145,16.257-5.1,19.782,5.545,6.425,26.285-2.366,46.322-19.655s31.793-36.506,26.252-42.932" transform="translate(-215.464 -25.916)"/></g></svg>