<svg xmlns="http://www.w3.org/2000/svg" xmlns:xlink="http://www.w3.org/1999/xlink" width="150" height="150" viewBox="0 0 150 150"><defs><style>.a,.d{fill:none;}.b{clip-path:url(#a);}.c{fill:#191919;}.d{stroke:#fff;stroke-width:1.5px;}.e{fill:#eeb111;}.f{stroke:none;}</style><clipPath id="a"><rect class="a" width="150" height="150"/></clipPath></defs><g class="b"><circle class="c" cx="75" cy="75" r="75"/><g transform="translate(-823 -240)"><g class="d" transform="translate(844 281)"><rect class="f" width="108" height="66" rx="5"/><rect class="a" x="0.75" y="0.75" width="106.5" height="64.5" rx="4.25"/></g><line class="d" y2="65" transform="translate(926.5 281.5)"/><g transform="translate(-1 11)"><g class="d" transform="translate(854 335)"><path class="f" d="M0,0H4A0,0,0,0,1,4,0V3A1,1,0,0,1,3,4H1A1,1,0,0,1,0,3V0A0,0,0,0,1,0,0Z"/><path class="a" d="M1.5.75h1a.75.75,0,0,1,.75.75V3A.25.25,0,0,1,3,3.25H1A.25.25,0,0,1,.75,3V1.5A.75.75,0,0,1,1.5.75Z"/></g><g class="d" transform="translate(941 335)"><path class="f" d="M0,0H4A0,0,0,0,1,4,0V3A1,1,0,0,1,3,4H1A1,1,0,0,1,0,3V0A0,0,0,0,1,0,0Z"/><path class="a" d="M1.5.75h1a.75.75,0,0,1,.75.75V3A.25.25,0,0,1,3,3.25H1A.25.25,0,0,1,.75,3V1.5A.75.75,0,0,1,1.5.75Z"/></g></g><g class="d" transform="translate(932 297)"><circle class="f" cx="7" cy="7" r="7"/><circle class="a" cx="7" cy="7" r="6.25"/></g><line class="d" x2="10" transform="translate(933.5 316.5)"/><line class="d" x2="10" transform="translate(933.5 323.5)"/><line class="d" x2="10" transform="translate(933.5 329.5)"/><g class="d" transform="translate(851 291)"><rect class="f" width="68" height="45"/><rect class="a" x="0.75" y="0.75" width="66.5" height="43.5"/></g><rect class="e" width="2" height="27" rx="1" transform="translate(911 301)"/></g></g></svg>