<svg xmlns="http://www.w3.org/2000/svg" xmlns:xlink="http://www.w3.org/1999/xlink" width="150" height="150" viewBox="0 0 150 150"><defs><style>.a,.d,.e{fill:none;}.b{clip-path:url(#a);}.c{fill:#191919;}.d{stroke:#fff;stroke-width:1.5px;}.f{fill:#eeb111;}.g,.h{stroke:none;}.h{fill:#fff;}</style><clipPath id="a"><rect class="a" width="150" height="150"/></clipPath></defs><g class="b"><circle class="c" cx="75" cy="75" r="75"/><g transform="translate(-486 -240)"><g class="d" transform="translate(536 363.5)"><path class="g" d="M0,0H6A0,0,0,0,1,6,0V4A1,1,0,0,1,5,5H1A1,1,0,0,1,0,4V0A0,0,0,0,1,0,0Z"/><path class="a" d="M1.5.75h3a.75.75,0,0,1,.75.75V4A.25.25,0,0,1,5,4.25H1A.25.25,0,0,1,.75,4V1.5A.75.75,0,0,1,1.5.75Z"/></g><g class="e" transform="translate(2507 274.5)"><path class="g" d="M-1917.2,90H-1979a8.009,8.009,0,0,1-8-8V8a8.009,8.009,0,0,1,8-8h64a8.009,8.009,0,0,1,8,8V82a8.077,8.077,0,0,1-.137,1.484A6.02,6.02,0,0,0-1912,81a6.007,6.007,0,0,0-6,6,6,6,0,0,0,.8,3Z"/><path class="h" d="M -1919.348754882813 88.5 C -1919.448852539063 88.00846099853516 -1919.5 87.50591278076172 -1919.5 87.00031280517578 C -1919.5 82.8646240234375 -1916.135375976563 79.5 -1911.999633789063 79.5 C -1910.766357421875 79.5 -1909.56640625 79.80707550048828 -1908.500122070313 80.36991119384766 L -1908.500122070313 8.000100135803223 C -1908.500122070313 4.415937423706055 -1911.416015625 1.5 -1915.000244140625 1.5 L -1979.000122070313 1.5 C -1982.584350585938 1.5 -1985.500244140625 4.415937423706055 -1985.500244140625 8.000100135803223 L -1985.500244140625 81.99990081787109 C -1985.500244140625 85.58406066894531 -1982.584350585938 88.5 -1979.000122070313 88.5 L -1919.348754882813 88.5 M -1917.197265625 90 L -1979.000122070313 90 C -1983.411376953125 90 -1987.000244140625 86.41116333007813 -1987.000244140625 81.99990081787109 L -1987.000244140625 8.000100135803223 C -1987.000244140625 3.588837385177612 -1983.411376953125 0 -1979.000122070313 0 L -1915.000244140625 0 C -1910.588989257813 0 -1907.000122070313 3.588837385177612 -1907.000122070313 8.000100135803223 L -1907.000122070313 81.99990081787109 C -1907.000122070313 82.49831390380859 -1907.04638671875 82.99770355224609 -1907.137573242188 83.48419952392578 C -1908.263916015625 81.92882537841797 -1910.080810546875 81 -1911.999633789063 81 C -1915.308227539063 81 -1918 83.69173431396484 -1918 87.00031280517578 C -1918 88.05435943603516 -1917.72265625 89.09112548828125 -1917.198120117188 89.99849700927734 L -1917.197265625 90 Z"/></g><g class="d" transform="translate(526 269.5)"><path class="g" d="M4,0H31a4,4,0,0,1,4,4V6a0,0,0,0,1,0,0H0A0,0,0,0,1,0,6V4A4,4,0,0,1,4,0Z"/><path class="a" d="M4,.75H31A3.25,3.25,0,0,1,34.25,4v.5a.75.75,0,0,1-.75.75H1.5A.75.75,0,0,1,.75,4.5V4A3.25,3.25,0,0,1,4,.75Z"/></g><line class="d" x1="24" y1="13" transform="translate(568.5 262)"/><line class="d" x2="79" transform="translate(520.5 284)"/><line class="d" x2="79" transform="translate(520.5 341)"/><g class="d" transform="translate(588 354.5)"><circle class="g" cx="7" cy="7" r="7"/><circle class="a" cx="7" cy="7" r="6.25"/></g><circle class="f" cx="4" cy="4" r="4" transform="translate(591 357.5)"/></g></g></svg>