<svg xmlns="http://www.w3.org/2000/svg" xmlns:xlink="http://www.w3.org/1999/xlink" width="158.97" height="158.97" viewBox="0 0 158.97 158.97"><defs><style>.a{fill:none;}.b{clip-path:url(#a);}.c{fill:#f5f5f5;stroke:#c2c2c2;}.d{fill:#d6d6d6;}.e{fill:#3d3d3d;}.f{fill:#b4b4b4;}.g{fill:#64e127;}</style><clipPath id="a"><rect class="a" width="158.97" height="158.97"/></clipPath></defs><g class="b"><circle class="c" cx="78.985" cy="78.985" r="78.985" transform="translate(0.5 0.5)"/><path class="d" d="M699.531,472.759a79,79,0,0,1-6.719-104.066A78.984,78.984,0,1,0,803.6,479.478,79,79,0,0,1,699.531,472.759Z" transform="translate(-661.544 -351.778)"/><path class="e" d="M759.407,477.058a51.7,51.7,0,0,1-36.673-15.167,2.927,2.927,0,0,1,4.14-4.14,46.061,46.061,0,0,0,65.067,0,2.927,2.927,0,0,1,4.14,4.14A51.7,51.7,0,0,1,759.407,477.058Z" transform="translate(-679.924 -378.873)"/><path class="f" d="M768.882,500.919a51.976,51.976,0,0,1-14.031-1.93,2.928,2.928,0,1,1,1.581-5.638,46.11,46.11,0,0,0,24.9,0,2.928,2.928,0,0,1,1.58,5.638A52.007,52.007,0,0,1,768.882,500.919Z" transform="translate(-689.397 -390.038)"/><g transform="translate(22.086 39.381)"><path class="e" d="M730.484,424.154a2.928,2.928,0,0,1-2.928-2.928,14.25,14.25,0,1,0-28.5,0,2.928,2.928,0,1,1-5.856,0,20.105,20.105,0,0,1,40.21,0A2.927,2.927,0,0,1,730.484,424.154Z" transform="translate(-693.201 -401.121)"/><path class="e" d="M838.139,424.154a2.928,2.928,0,0,1-2.928-2.928,14.25,14.25,0,1,0-28.5,0,2.927,2.927,0,1,1-5.855,0,20.1,20.1,0,0,1,40.209,0A2.927,2.927,0,0,1,838.139,424.154Z" transform="translate(-726.272 -401.121)"/></g><g transform="translate(22.035 67.853)"><circle class="g" cx="7.717" cy="7.717" r="7.717"/><circle class="g" cx="7.717" cy="7.717" r="7.717" transform="translate(99.462)"/></g></g></svg>