<svg xmlns="http://www.w3.org/2000/svg" xmlns:xlink="http://www.w3.org/1999/xlink" width="150" height="150" viewBox="0 0 150 150"><defs><style>.a,.d{fill:none;}.b{clip-path:url(#a);}.c{fill:#191919;}.d{stroke:#fff;stroke-width:1.5px;}.e{stroke:none;}</style><clipPath id="a"><rect class="a" width="150" height="150"/></clipPath></defs><g class="b"><circle class="c" cx="75" cy="75" r="75"/><g transform="translate(-238 -198)"><g class="d" transform="translate(284 231.303)"><path class="e" d="M4,0H53.8a4,4,0,0,1,4,4V75.394a8,8,0,0,1-8,8H8a8,8,0,0,1-8-8V4A4,4,0,0,1,4,0Z"/><path class="a" d="M4,.75H53.8A3.25,3.25,0,0,1,57.048,4V75.394a7.25,7.25,0,0,1-7.25,7.25H8a7.25,7.25,0,0,1-7.25-7.25V4A3.25,3.25,0,0,1,4,.75Z"/></g><g class="d" transform="translate(293.083 313.872)"><path class="e" d="M0,0H4.954a0,0,0,0,1,0,0V3.128a1,1,0,0,1-1,1H1a1,1,0,0,1-1-1V0A0,0,0,0,1,0,0Z"/><path class="a" d="M1.5.75H3.454a.75.75,0,0,1,.75.75V3.128a.25.25,0,0,1-.25.25H1a.25.25,0,0,1-.25-.25V1.5A.75.75,0,0,1,1.5.75Z"/></g><g class="d" transform="translate(326.936 313.872)"><path class="e" d="M0,0H4.954a0,0,0,0,1,0,0V3.128a1,1,0,0,1-1,1H1a1,1,0,0,1-1-1V0A0,0,0,0,1,0,0Z"/><path class="a" d="M1.5.75H3.454a.75.75,0,0,1,.75.75V3.128a.25.25,0,0,1-.25.25H1a.25.25,0,0,1-.25-.25V1.5A.75.75,0,0,1,1.5.75Z"/></g><g class="d" transform="translate(286.477 228)"><path class="e" d="M3,0H49.67a4,4,0,0,1,4,4v.128a0,0,0,0,1,0,0H0a0,0,0,0,1,0,0V3A3,3,0,0,1,3,0Z"/><path class="a" d="M2.228.75H50.784A2.136,2.136,0,0,1,52.92,2.886v0a.493.493,0,0,1-.493.493H1.243A.493.493,0,0,1,.75,2.886V2.228A1.478,1.478,0,0,1,2.228.75Z"/></g><line class="d" x2="56.972" transform="translate(284.413 243.275)"/></g></g></svg>