<svg xmlns="http://www.w3.org/2000/svg" xmlns:xlink="http://www.w3.org/1999/xlink" width="157.759" height="157.759" viewBox="0 0 157.759 157.759"><defs><style>.a{fill:none;}.b{clip-path:url(#a);}.c{fill:#4e9bff;}.d{fill:#204370;}.e{fill:#fff;}</style><clipPath id="a"><rect class="a" width="157.759" height="157.759"/></clipPath></defs><g class="b"><path class="c" d="M78.879,0A78.879,78.879,0,1,1,0,78.879,78.88,78.88,0,0,1,78.879,0Z"/><path class="d" d="M165.557,121.03l-4.612-4.606-4.526,2.221a27.751,27.751,0,0,0-3.8-2.187l-.335-5.038L146,109.739l-2.809,4.189.024.014c-.74-.065-1.48-.1-2.22-.093s-1.487.031-2.224.091l.026-.011-2.809-4.189-6.289,1.68-.337,5.044a26.577,26.577,0,0,0-3.8,2.186l-4.53-2.224-4.6,4.6,2.224,4.527a27.875,27.875,0,0,0-2.194,3.81l-5.033.33-1.687,6.288,4.189,2.806c-.044.725-.082,1.467-.076,2.194-.006.742.031,1.489.094,2.226l-.017-.024-4.189,2.806,1.682,6.287,5.035.341a28.315,28.315,0,0,0,2.2,3.8l-2.224,4.528,4.6,4.6,4.526-2.224a28.028,28.028,0,0,0,3.8,2.194l.341,5.033,6.289,1.688,2.8-4.191c.73.046,1.469.083,2.2.074s1.482-.028,2.216-.082l2.785,4.2,6.293-1.683.335-5.029a28.914,28.914,0,0,0,3.8-2.206l4.526,2.227,4.612-4.6-2.231-4.532a27.357,27.357,0,0,0,2.191-3.8l5.04-.334,1.684-6.289-4.19-2.806-.011.024c.056-.737.1-1.479.088-2.226.011-.723-.032-1.469-.076-2.194l4.188-2.806-1.684-6.288-5.044-.341a26.6,26.6,0,0,0-2.187-3.8Zm-10.318,34.208a20.151,20.151,0,1,1,0-28.5A20.148,20.148,0,0,1,155.239,155.238Z" transform="translate(-75.922 -75.926)"/><path class="e" d="M261.294,270.718l9.437-9.442L240.181,230.73l-9.435,9.442Z" transform="translate(-159.648 -159.637)"/><g transform="translate(48.38 48.38)"><path class="e" d="M168.67,157.787l11.681,11.677-2.3,8.584-8.582,2.3L157.787,168.67a16.7,16.7,0,1,0,10.883-10.883Z" transform="translate(-157.015 -157.014)"/><path class="e" d="M330.5,330.494a11.5,11.5,0,1,0,16.383-.132A11.582,11.582,0,0,0,330.5,330.494Zm16.082,4.832-1.24,3.295,1.24,3.295-3.2,1.455-1.456,3.2-3.289-1.239-3.294,1.235-1.458-3.2-3.2-1.455,1.24-3.295-1.24-3.295,3.2-1.45,1.458-3.2,3.294,1.235,3.289-1.235,1.456,3.2Z" transform="translate(-274.648 -274.647)"/></g></g></svg>